<svg width="70" height="70" viewBox="0 0 70 70" fill="none" xmlns="http://www.w3.org/2000/svg">
<mask id="mask0" mask-type="alpha" maskUnits="userSpaceOnUse" x="0" y="0" width="70" height="70">
<rect width="70" height="70" fill="#C4C4C4"/>
</mask>
<g mask="url(#mask0)">
<path fill-rule="evenodd" clip-rule="evenodd" d="M52 39.0956V15.899C52 14.7392 51.5813 13.7533 50.7438 12.9415C49.9064 12.1296 48.9094 11.7236 47.7529 11.7236H10.3069C9.11053 11.7236 8.09363 12.1296 7.25618 12.9415C6.41872 13.7533 6 14.7392 6 15.899V39.0956C6 40.2168 6.41872 41.1833 7.25618 41.9952C8.09363 42.8071 9.11053 43.213 10.3069 43.213H17.4252V52.7236L28.3121 43.213H47.7529C48.9094 43.213 49.9064 42.8071 50.7438 41.9952C51.5813 41.1833 52 40.2168 52 39.0956ZM59.6552 20.7236H54.2845C54.2845 20.7236 54.2845 21.7123 54.2845 23.6896C54.2845 25.667 54.2845 27.8792 54.2845 30.3264C54.2845 32.7736 54.2845 35.0935 54.2845 37.2862C54.2845 39.4789 54.2845 40.8102 54.2845 41.2801C54.2845 42.1415 53.8218 43.0224 52.8966 43.923C51.9713 44.8236 51.046 45.2739 50.1207 45.2739C49.6782 45.2739 48.3305 45.2837 46.0776 45.3032C43.8247 45.3228 41.4311 45.3326 38.8966 45.3326C36.3621 45.3326 34.079 45.3424 32.0474 45.362C30.0158 45.3815 29 45.3913 29 45.3913C29 46.5268 29.4224 47.4274 30.2672 48.093C31.1121 48.7587 32.1178 49.0915 33.2845 49.0915H41.6121L52.4741 58.7236V49.0915H59.6552C60.8621 49.0915 61.8879 48.7587 62.7328 48.093C63.5776 47.4274 64 46.5268 64 45.3913V24.8349C64 23.6603 63.5776 22.6814 62.7328 21.8983C61.8879 21.1152 60.8621 20.7236 59.6552 20.7236Z" fill="white"/>
</g>
</svg>
