<svg width="70" height="70" viewBox="0 0 70 70" fill="none" xmlns="http://www.w3.org/2000/svg">
<mask id="mask0" mask-type="alpha" maskUnits="userSpaceOnUse" x="0" y="0" width="70" height="70">
<rect width="70" height="70" fill="#C4C4C4"/>
</mask>
<g mask="url(#mask0)">
<path fill-rule="evenodd" clip-rule="evenodd" d="M59.7578 52.0625C60.5859 53.0878 61 54.3497 61 55.8482C61 59.9494 58.1016 62 52.3047 62H16.6953C10.8984 62 8 59.9494 8 55.8482C8 54.4286 8.41406 53.1667 9.24219 52.0625L16.0052 43.4263L22.7682 34.317C24.7005 31.7931 25.6667 29.0328 25.6667 26.0357V15.1518C25.6667 14.2842 25.2986 13.2392 24.5625 12.0167C23.8264 10.7943 23.4583 10.1436 23.4583 10.0647C23.3663 9.59152 23.4583 9.29576 23.7344 9.17746C24.0104 9.05915 24.7005 9 25.8047 9H43.1953C44.2995 9 44.9666 9.05915 45.1966 9.17746C45.4266 9.29576 45.4957 9.59152 45.4036 10.0647C45.4036 10.1436 45.0586 10.7548 44.3685 11.8984C43.6784 13.042 43.3333 14.087 43.3333 15.0335V26.0357C43.3333 29.2694 44.2075 32.0298 45.9557 34.317L59.7578 52.0625ZM52.7375 58C54.2958 58 55.3958 57.7266 56.0375 57.1797C56.6792 56.6328 57 56.0859 57 55.5391C57 55.0703 56.8167 54.5234 56.45 53.8984L42.5625 36.3203C40.4542 33.4297 39.4 30.0313 39.4 26.125V13H30.6V26.125C30.6 29.875 29.4542 33.2734 27.1625 36.3203L13.55 53.8984C13.1833 54.5234 13 55.0703 13 55.5391C13 56.1641 13.275 56.7109 13.825 57.1797C14.4667 57.7266 15.6125 58 17.2625 58H52.7375ZM52.5809 54.1644C52.8603 54.6575 53 54.9863 53 55.1507C53 55.6438 52.8137 56.0753 52.4412 56.4452C52.0686 56.8151 51.6029 57 51.0441 57H16.9559C16.4902 57 16.0478 56.8356 15.6287 56.5068C15.2096 56.1781 15 55.7671 15 55.274C15 54.863 15.1397 54.5342 15.4191 54.2877L26.7353 39H41.125L52.5809 54.2877V54.1644ZM41.375 45.75C41.875 45.9167 42.25 46 42.5 46C42.875 46 43.1875 45.9167 43.4375 45.75L44 45C44 44.75 43.8125 44.5 43.4375 44.25C43.3125 44.0833 43 44 42.5 44C42 44 41.625 44.0833 41.375 44.25C41.125 44.5833 41 44.8333 41 45C41 45.3333 41.125 45.5833 41.375 45.75ZM47.5408 52.8846C48.051 52.6538 48.1361 52.2308 47.7959 51.6154L44.8622 47.4615C44.6922 47.1538 44.3946 47 43.9694 47C43.7143 47 43.5442 47.0385 43.4592 47.1154C42.949 47.3462 42.8639 47.7692 43.2041 48.3846L46.1378 52.5385C46.3078 52.8462 46.6054 53 47.0306 53C47.2857 53 47.4558 52.9615 47.5408 52.8846Z" fill="white"/>
</g>
</svg>
