<svg width="70" height="70" viewBox="0 0 70 70" fill="none" xmlns="http://www.w3.org/2000/svg">
<mask id="mask0" mask-type="alpha" maskUnits="userSpaceOnUse" x="0" y="0" width="70" height="70">
<rect width="70" height="70" fill="#C4C4C4"/>
</mask>
<g mask="url(#mask0)">
<path fill-rule="evenodd" clip-rule="evenodd" d="M47.6562 30.9286C45.0521 30.9286 42.8125 30.0084 40.9375 28.1681C39.0625 26.3279 38.125 24.0933 38.125 21.4643C38.125 18.8353 39.0625 16.6007 40.9375 14.7604C42.8125 12.9201 45.0521 12 47.6562 12C50.3646 12 52.6562 12.9201 54.5312 14.7604C56.4063 16.6007 57.3438 18.8353 57.3438 21.4643C57.3438 24.0933 56.4063 26.3279 54.5312 28.1681C52.6562 30.0084 50.3646 30.9286 47.6562 30.9286ZM22.3438 30.9286C19.6354 30.9286 17.3438 30.0084 15.4688 28.1681C13.5937 26.3279 12.6562 24.0933 12.6562 21.4643C12.6562 18.8353 13.5937 16.6007 15.4688 14.7604C17.3438 12.9201 19.6354 12 22.3438 12C24.9479 12 27.1875 12.9201 29.0625 14.7604C30.9375 16.6007 31.875 18.8353 31.875 21.4643C31.875 24.0933 30.9375 26.3279 29.0625 28.1681C27.1875 30.0084 24.9479 30.9286 22.3438 30.9286ZM7.65625 40.8661C12.7604 38.868 17.6562 37.869 22.3438 37.869C27.0313 37.869 31.9791 38.868 37.1875 40.8661C42.3959 42.8641 45 45.5456 45 48.9107V57.4286H0V48.9107C0 45.5456 2.55206 42.8641 7.65625 40.8661ZM47.6562 39.6042C52.8646 39.6042 57.8906 40.3403 62.7344 41.8125C67.5782 43.2847 70 45.6508 70 48.9107V57.4286H50V48.9107C50 46.7024 49.6354 44.9936 48.9062 43.7842C48.1771 42.5749 46.875 41.2341 45 39.7619C45.7292 39.6567 46.6146 39.6042 47.6562 39.6042Z" fill="white"/>
</g>
</svg>
