<svg width="20" height="22" viewBox="0 0 20 22" fill="none" xmlns="http://www.w3.org/2000/svg">
<path fill-rule="evenodd" clip-rule="evenodd" d="M1.53846 20H5V16.5385H1.53846V20ZM5.76923 20H9.61539V16.5385H5.76923V20ZM1.53846 15.7692H5V11.9231H1.53846V15.7692ZM5.76923 15.7692H9.61539V11.9231H5.76923V15.7692ZM1.53846 11.1538H5V7.69231H1.53846V11.1538ZM10.3846 20H14.2308V16.5385H10.3846V20ZM5.76923 11.1538H9.61539V7.69231H5.76923V11.1538ZM15 20H18.4615V16.5385H15V20ZM10.3846 15.7692H14.2308V11.9231H10.3846V15.7692ZM6.15385 5.38462V1.92308C6.15385 1.81891 6.11579 1.72877 6.03966 1.65264C5.96354 1.57652 5.8734 1.53846 5.76923 1.53846H5C4.89583 1.53846 4.80569 1.57652 4.72957 1.65264C4.65344 1.72877 4.61539 1.81891 4.61539 1.92308V5.38462C4.61539 5.48878 4.65344 5.57892 4.72957 5.65505C4.80569 5.73117 4.89583 5.76923 5 5.76923H5.76923C5.8734 5.76923 5.96354 5.73117 6.03966 5.65505C6.11579 5.57892 6.15385 5.48878 6.15385 5.38462ZM15 15.7692H18.4615V11.9231H15V15.7692ZM10.3846 11.1538H14.2308V7.69231H10.3846V11.1538ZM15 11.1538H18.4615V7.69231H15V11.1538ZM15.3846 5.38462V1.92308C15.3846 1.81891 15.3466 1.72877 15.2704 1.65264C15.1943 1.57652 15.1042 1.53846 15 1.53846H14.2308C14.1266 1.53846 14.0365 1.57652 13.9603 1.65264C13.8842 1.72877 13.8462 1.81891 13.8462 1.92308V5.38462C13.8462 5.48878 13.8842 5.57892 13.9603 5.65505C14.0365 5.73117 14.1266 5.76923 14.2308 5.76923H15C15.1042 5.76923 15.1943 5.73117 15.2704 5.65505C15.3466 5.57892 15.3846 5.48878 15.3846 5.38462ZM20 4.61539V20C20 20.4167 19.8478 20.7772 19.5433 21.0817C19.2388 21.3862 18.8782 21.5385 18.4615 21.5385H1.53846C1.12179 21.5385 0.76122 21.3862 0.456731 21.0817C0.152242 20.7772 0 20.4167 0 20V4.61539C0 4.19872 0.152242 3.83814 0.456731 3.53365C0.76122 3.22916 1.12179 3.07692 1.53846 3.07692H3.07692V1.92308C3.07692 1.39423 3.26522 0.941508 3.64183 0.564903C4.01843 0.1883 4.47115 0 5 0H5.76923C6.29808 0 6.7508 0.1883 7.1274 0.564903C7.50401 0.941508 7.69231 1.39423 7.69231 1.92308V3.07692H12.3077V1.92308C12.3077 1.39423 12.496 0.941508 12.8726 0.564903C13.2492 0.1883 13.7019 0 14.2308 0H15C15.5288 0 15.9816 0.1883 16.3582 0.564903C16.7348 0.941508 16.9231 1.39423 16.9231 1.92308V3.07692H18.4615C18.8782 3.07692 19.2388 3.22916 19.5433 3.53365C19.8478 3.83814 20 4.19872 20 4.61539Z" fill="#9F9F9F"/>
</svg>
