<svg width="18" height="14" viewBox="0 0 18 14" fill="none" xmlns="http://www.w3.org/2000/svg">
<g clip-path="url(#clip0)">
<path d="M15.4309 8.2999V13.6909C15.4309 13.8856 15.3602 14.054 15.2187 14.1963C15.0773 14.3386 14.9099 14.4097 14.7163 14.4097H10.4291V10.0969H7.57092V14.4097H3.28367C3.09014 14.4097 2.92267 14.3386 2.78125 14.1963C2.63983 14.054 2.56912 13.8856 2.56912 13.6909V8.2999C2.56912 8.29241 2.57099 8.28118 2.57471 8.2662C2.57843 8.25123 2.58029 8.24 2.58029 8.23251L9 2.90889L15.4197 8.23251C15.4272 8.24748 15.4309 8.26995 15.4309 8.2999ZM17.9206 7.52494L17.2284 8.35605C17.1688 8.42344 17.0907 8.46462 16.9939 8.4796H16.9604C16.8637 8.4796 16.7855 8.45339 16.726 8.40098L9 1.92054L1.27402 8.40098C1.1847 8.46088 1.09538 8.48708 1.00607 8.4796C0.909304 8.46462 0.831151 8.42344 0.771606 8.35605L0.0793935 7.52494C0.0198482 7.45006 -0.00620263 7.36209 0.00124054 7.261C0.0086837 7.15992 0.0496206 7.07943 0.124053 7.01953L8.15148 0.292013C8.38966 0.0973366 8.6725 0 9 0C9.3275 0 9.61034 0.0973366 9.84852 0.292013L12.5727 2.58319V0.393094C12.5727 0.288268 12.6062 0.202163 12.6732 0.134775C12.7402 0.0673872 12.8258 0.0336939 12.93 0.0336939H15.0736C15.1778 0.0336939 15.2634 0.0673872 15.3304 0.134775C15.3974 0.202163 15.4309 0.288268 15.4309 0.393094V4.97545L17.8759 7.01953C17.9504 7.07943 17.9913 7.15992 17.9988 7.261C18.0062 7.36209 17.9802 7.45006 17.9206 7.52494Z" fill="white"/>
</g>
<defs>
<clipPath id="clip0">
<rect width="18" height="14" fill="white"/>
</clipPath>
</defs>
</svg>
