<svg width="13" height="14" viewBox="0 0 13 14" fill="none" xmlns="http://www.w3.org/2000/svg">
<mask id="mask0" mask-type="alpha" maskUnits="userSpaceOnUse" x="0" y="0" width="13" height="14">
<rect width="13" height="14" fill="#C4C4C4"/>
</mask>
<g mask="url(#mask0)">
<path fill-rule="evenodd" clip-rule="evenodd" d="M1.46875 1.4375C2.44792 0.479162 3.62499 0 5 0C6.37501 0 7.55208 0.479162 8.53125 1.4375C9.51042 2.39584 10 3.55208 10 4.90625C10 5.98959 9.58334 7.29166 8.75 8.8125C7.91666 10.3333 7.08334 11.5833 6.25 12.5625L5 14C4.85417 13.8542 4.67188 13.651 4.45312 13.3906C4.23437 13.1302 3.83854 12.625 3.26562 11.875C2.69271 11.125 2.1875 10.3958 1.75 9.6875C1.3125 8.97916 0.91146 8.17709 0.546875 7.28125C0.18229 6.38541 0 5.59375 0 4.90625C0 3.55208 0.489578 2.39584 1.46875 1.4375ZM3.61673 6.44444C3.9991 6.81482 4.46019 7 5 7C5.53981 7 5.99528 6.80903 6.3664 6.42708C6.73752 6.04514 6.92308 5.58797 6.92308 5.05556C6.92308 4.52314 6.73752 4.06597 6.3664 3.68403C5.99528 3.30208 5.53981 3.11111 5 3.11111C4.46019 3.11111 4.00472 3.30208 3.6336 3.68403C3.26248 4.06597 3.07692 4.52314 3.07692 5.05556C3.07692 5.58797 3.25686 6.05092 3.61673 6.44444Z" fill="#00AFF5"/>
</g>
</svg>
