<svg width="13" height="14" viewBox="0 0 13 14" fill="none" xmlns="http://www.w3.org/2000/svg">
<mask id="mask0" mask-type="alpha" maskUnits="userSpaceOnUse" x="0" y="0" width="13" height="14">
<rect width="13" height="14" fill="#C4C4C4"/>
</mask>
<g mask="url(#mask0)">
<path fill-rule="evenodd" clip-rule="evenodd" d="M1.76796 3.57132C2.03806 3.57132 2.26929 3.67623 2.46163 3.88606C2.65398 4.09588 2.75015 4.34811 2.75015 4.64275V11.9285C2.75015 12.2231 2.65398 12.4753 2.46163 12.6852C2.26929 12.895 2.03806 12.9999 1.76796 12.9999H0.982198C0.712092 12.9999 0.480869 12.895 0.288521 12.6852C0.0961726 12.4753 0 12.2231 0 11.9285V4.64275C0 4.34811 0.0961726 4.09588 0.288521 3.88606C0.480869 3.67623 0.712092 3.57132 0.982198 3.57132H1.76796ZM10.2138 4.66295C10.4512 4.81473 10.6415 5.02232 10.7847 5.28571C10.9279 5.54911 10.9996 5.83482 10.9996 6.14286V11.2857C10.9996 11.7589 10.8461 12.1629 10.5392 12.4978C10.2322 12.8326 9.86186 13 9.42805 13H4.12418C3.85408 13 3.62285 12.8951 3.43051 12.6853C3.23816 12.4754 3.14198 12.2232 3.14198 11.9286V1.64286C3.14198 1.46428 3.19928 1.3125 3.31387 1.1875C3.42846 1.0625 3.5676 1 3.7313 1H7.85654C8.02024 1 8.2003 1.04464 8.39674 1.13393C8.59318 1.22321 8.7487 1.33036 8.86329 1.45536L9.79638 2.47321C9.91097 2.59822 10.0092 2.76786 10.091 2.98214C10.1729 3.19643 10.2138 3.39286 10.2138 3.57143V4.66295ZM5.69558 11.2857V10.4285C5.69558 10.366 5.67716 10.3147 5.64033 10.2745C5.6035 10.2343 5.55643 10.2142 5.49914 10.2142H4.71338C4.65608 10.2142 4.60902 10.2343 4.57219 10.2745C4.53535 10.3147 4.51694 10.366 4.51694 10.4285V11.2857C4.51694 11.3482 4.53535 11.3995 4.57219 11.4397C4.60902 11.4799 4.65608 11.4999 4.71338 11.4999H5.49914C5.55643 11.4999 5.6035 11.4799 5.64033 11.4397C5.67716 11.3995 5.69558 11.3482 5.69558 11.2857ZM5.69558 9.57143V8.71429C5.69558 8.65178 5.67716 8.60045 5.64033 8.56027C5.6035 8.52009 5.55643 8.5 5.49914 8.5H4.71338C4.65608 8.5 4.60902 8.52009 4.57219 8.56027C4.53535 8.60045 4.51694 8.65178 4.51694 8.71429V9.57143C4.51694 9.63393 4.53535 9.68527 4.57219 9.72545C4.60902 9.76562 4.65608 9.78571 4.71338 9.78571H5.49914C5.55643 9.78571 5.6035 9.76562 5.64033 9.72545C5.67716 9.68527 5.69558 9.63393 5.69558 9.57143ZM5.69558 7.85732V7.00017C5.69558 6.93767 5.67716 6.88633 5.64033 6.84616C5.6035 6.80598 5.55643 6.78589 5.49914 6.78589H4.71338C4.65608 6.78589 4.60902 6.80598 4.57219 6.84616C4.53535 6.88633 4.51694 6.93767 4.51694 7.00017V7.85732C4.51694 7.91982 4.53535 7.97116 4.57219 8.01133C4.60902 8.05151 4.65608 8.0716 4.71338 8.0716H5.49914C5.55643 8.0716 5.6035 8.05151 5.64033 8.01133C5.67716 7.97116 5.69558 7.91982 5.69558 7.85732ZM7.26746 11.2857V10.4285C7.26746 10.366 7.24905 10.3147 7.21222 10.2745C7.17538 10.2343 7.12832 10.2142 7.07102 10.2142H6.28527C6.22797 10.2142 6.18091 10.2343 6.14407 10.2745C6.10724 10.3147 6.08883 10.366 6.08883 10.4285V11.2857C6.08883 11.3482 6.10724 11.3995 6.14407 11.4397C6.18091 11.4799 6.22797 11.4999 6.28527 11.4999H7.07102C7.12832 11.4999 7.17538 11.4799 7.21222 11.4397C7.24905 11.3995 7.26746 11.3482 7.26746 11.2857ZM7.26746 9.57143V8.71429C7.26746 8.65178 7.24905 8.60045 7.21222 8.56027C7.17538 8.52009 7.12832 8.5 7.07102 8.5H6.28527C6.22797 8.5 6.18091 8.52009 6.14407 8.56027C6.10724 8.60045 6.08883 8.65178 6.08883 8.71429V9.57143C6.08883 9.63393 6.10724 9.68527 6.14407 9.72545C6.18091 9.76562 6.22797 9.78571 6.28527 9.78571H7.07102C7.12832 9.78571 7.17538 9.76562 7.21222 9.72545C7.24905 9.68527 7.26746 9.63393 7.26746 9.57143ZM7.26746 7.85732V7.00017C7.26746 6.93767 7.24905 6.88633 7.21222 6.84616C7.17538 6.80598 7.12832 6.78589 7.07102 6.78589H6.28527C6.22797 6.78589 6.18091 6.80598 6.14407 6.84616C6.10724 6.88633 6.08883 6.93767 6.08883 7.00017V7.85732C6.08883 7.91982 6.10724 7.97116 6.14407 8.01133C6.18091 8.05151 6.22797 8.0716 6.28527 8.0716H7.07102C7.12832 8.0716 7.17538 8.05151 7.21222 8.01133C7.24905 7.97116 7.26746 7.91982 7.26746 7.85732ZM8.84114 11.2857V10.4285C8.84114 10.366 8.82272 10.3147 8.78589 10.2745C8.74906 10.2343 8.702 10.2142 8.6447 10.2142H7.85894C7.80165 10.2142 7.75458 10.2343 7.71775 10.2745C7.68092 10.3147 7.6625 10.366 7.6625 10.4285V11.2857C7.6625 11.3482 7.68092 11.3995 7.71775 11.4397C7.75458 11.4799 7.80165 11.4999 7.85894 11.4999H8.6447C8.702 11.4999 8.74906 11.4799 8.78589 11.4397C8.82272 11.3995 8.84114 11.3482 8.84114 11.2857ZM8.84114 9.57143V8.71429C8.84114 8.65178 8.82272 8.60045 8.78589 8.56027C8.74906 8.52009 8.702 8.5 8.6447 8.5H7.85894C7.80165 8.5 7.75458 8.52009 7.71775 8.56027C7.68092 8.60045 7.6625 8.65178 7.6625 8.71429V9.57143C7.6625 9.63393 7.68092 9.68527 7.71775 9.72545C7.75458 9.76562 7.80165 9.78571 7.85894 9.78571H8.6447C8.702 9.78571 8.74906 9.76562 8.78589 9.72545C8.82272 9.68527 8.84114 9.63393 8.84114 9.57143ZM8.84114 7.85732V7.00017C8.84114 6.93767 8.82272 6.88633 8.78589 6.84616C8.74906 6.80598 8.702 6.78589 8.6447 6.78589H7.85894C7.80165 6.78589 7.75458 6.80598 7.71775 6.84616C7.68092 6.88633 7.6625 6.93767 7.6625 7.00017V7.85732C7.6625 7.91982 7.68092 7.97116 7.71775 8.01133C7.75458 8.05151 7.80165 8.0716 7.85894 8.0716H8.6447C8.702 8.0716 8.74906 8.05151 8.78589 8.01133C8.82272 7.97116 8.84114 7.91982 8.84114 7.85732ZM9.42824 5.28563V3.57134H8.44604C8.28234 3.57134 8.14319 3.50884 8.0286 3.38384C7.91401 3.25884 7.85672 3.10706 7.85672 2.92848V1.85706H3.92793V5.28563H9.42824Z" fill="#00AFF5"/>
</g>
</svg>
