<svg width="14" height="18" viewBox="0 0 14 18" fill="none" xmlns="http://www.w3.org/2000/svg">
<path d="M4.38586 4.33643H1.6447C0.737776 4.33643 0 5.19178 0 6.24325V8.78568C0 9.83715 0.737776 10.6925 1.6447 10.6925H4.38586V4.33643Z" fill="#707070"/>
<path d="M12.0978 13.8705C12.0978 14.2218 12.343 14.5061 12.646 14.5061C12.949 14.5061 13.1942 14.2218 13.1942 13.8705V1.15831C13.1942 0.806992 12.949 0.522705 12.646 0.522705C12.343 0.522705 12.0978 0.806992 12.0978 1.15831C12.0978 2.9106 10.868 4.33636 9.35659 4.33636H5.48242V10.6924H9.35659C10.868 10.6924 12.0978 12.1182 12.0978 13.8705Z" fill="#707070"/>
<path d="M4.93404 14.5061C5.84096 14.5061 6.57874 13.6507 6.57874 12.5992V11.9636H5.48227V12.5992C5.48227 12.9499 5.23651 13.2348 4.93404 13.2348H4.3858V11.9636H2.19287V16.4129C2.19287 16.7642 2.43808 17.0485 2.7411 17.0485C2.86292 17.0485 5.05267 17.0485 4.93404 17.0485C5.23706 17.0485 5.48227 16.7642 5.48227 16.4129C5.48227 16.0616 5.23706 15.7773 4.93404 15.7773H4.3858V14.5061H4.93404Z" fill="#707070"/>
</svg>
