<svg width="18" height="16" viewBox="0 0 18 16" fill="none" xmlns="http://www.w3.org/2000/svg">
<path d="M15.7713 10.9932C15.1229 10.9932 14.5971 11.4604 14.5971 12.0368V13.6635H3.4026V12.0368C3.4026 11.4604 2.87694 10.9932 2.22852 10.9932C1.5801 10.9932 1.05444 11.4604 1.05444 12.0368V14.7071C1.05444 15.2835 1.5801 15.7509 2.22852 15.7509H15.7713C16.4197 15.7509 16.9454 15.2835 16.9454 14.7071V12.0368C16.9454 11.4604 16.4197 10.9932 15.7713 10.9932Z" fill="white"/>
<path d="M8.64545 12.1037C8.84102 12.2774 9.15873 12.2774 9.3541 12.1037L13.4687 8.44622C13.5886 8.33966 13.6242 8.1796 13.5594 8.03997C13.4946 7.90091 13.3421 7.81025 13.1723 7.81025H11.2403V1.063C11.2403 0.612941 10.8303 0.248535 10.3241 0.248535H7.67605C7.16987 0.248535 6.75988 0.61291 6.75988 1.063V7.81025H4.82724C4.65754 7.81025 4.5051 7.90088 4.44027 8.03997C4.37544 8.1796 4.41109 8.33966 4.5308 8.44622L8.64545 12.1037Z" fill="white"/>
</svg>
