<svg width="13" height="14" viewBox="0 0 13 14" fill="none" xmlns="http://www.w3.org/2000/svg">
<mask id="mask0" mask-type="alpha" maskUnits="userSpaceOnUse" x="0" y="0" width="13" height="14">
<rect width="13" height="14" fill="#C4C4C4"/>
</mask>
<g mask="url(#mask0)">
<path fill-rule="evenodd" clip-rule="evenodd" d="M11.2501 8.41028C11.2161 8.19864 11.1224 8.01752 10.9692 7.86693C10.816 7.71634 10.6287 7.61663 10.4074 7.56778C9.56466 7.38056 9.00071 7.07328 8.71554 6.64593C8.43037 6.21857 8.27076 5.74849 8.23671 5.23567C8.08349 5.20311 7.86855 5.17665 7.59189 5.1563C7.31523 5.13595 6.95133 5.12578 6.50016 5.12578C6.049 5.12578 5.68509 5.13595 5.40844 5.1563C5.13178 5.17665 4.91684 5.20311 4.76361 5.23567C4.72956 5.74849 4.56996 6.21857 4.28479 6.64593C3.99962 7.07328 3.43567 7.38056 2.59293 7.56778C2.3716 7.61663 2.18433 7.71634 2.0311 7.86693C1.87788 8.01752 1.78424 8.19864 1.75019 8.41028L1.43097 10.5592C1.37138 10.9337 1.46928 11.2674 1.72465 11.5605C1.98003 11.8535 2.30776 12 2.70785 12H10.2925C10.6926 12 11.0203 11.8535 11.2757 11.5605C11.531 11.2674 11.6289 10.9337 11.5694 10.5592L11.2501 8.41028ZM6.50068 10.425C6.04101 10.425 5.65156 10.2723 5.33234 9.96708C5.01312 9.66182 4.85352 9.29349 4.85352 8.86207C4.85352 8.43064 5.01312 8.06231 5.33234 7.75706C5.65156 7.45181 6.04101 7.29918 6.50068 7.29918C6.96036 7.29918 7.3498 7.45181 7.66902 7.75706C7.98824 8.06231 8.14785 8.43064 8.14785 8.86207C8.14785 9.29349 7.98824 9.66182 7.66902 9.96708C7.3498 10.2723 6.96036 10.425 6.50068 10.425ZM12.9993 4.49085C12.9993 4.26293 12.8482 4.00245 12.546 3.70941C12.2438 3.41636 11.8097 3.14368 11.2436 2.89133C10.6775 2.63899 9.99438 2.42735 9.1942 2.25641C8.39403 2.08547 7.49597 2 6.5 2C5.50403 2 4.60597 2.08547 3.80579 2.25641C3.00562 2.42735 2.3225 2.63899 1.75641 2.89133C1.19033 3.14368 0.756195 3.41636 0.454 3.70941C0.151805 4.00245 0.000709387 4.26293 0.000709387 4.49085C-0.00780315 4.96297 0.0602961 5.43306 0.205009 5.90111C0.349722 6.36916 0.830674 6.55435 1.64788 6.45667C2.60979 6.33457 3.15246 6.11886 3.27589 5.80953C3.39932 5.50021 3.46104 5.11356 3.46104 4.64958C3.46104 4.33212 3.78238 4.12048 4.42508 4.01466C5.06778 3.90884 5.75941 3.85593 6.5 3.85593C7.24059 3.85593 7.93222 3.90884 8.57492 4.01466C9.21762 4.12048 9.53896 4.33212 9.53896 4.64958C9.53896 5.11356 9.60068 5.50021 9.72411 5.80953C9.84754 6.11886 10.3902 6.33457 11.3521 6.45667C12.1693 6.55435 12.6503 6.36916 12.795 5.90111C12.9397 5.43306 13.0078 4.96297 12.9993 4.49085Z" fill="#00AFF5"/>
</g>
</svg>
