<svg width="7" height="11" viewBox="0 0 7 11" fill="none" xmlns="http://www.w3.org/2000/svg">
<path fill-rule="evenodd" clip-rule="evenodd" d="M0.911458 10.8969C0.838541 10.9656 0.729167 11 0.583333 11C0.413194 11 0.273438 10.9427 0.164062 10.8281C0.054687 10.7135 0 10.576 0 10.4156V0.584375C0 0.423958 0.054687 0.28646 0.164062 0.171875C0.273438 0.0572902 0.413194 0 0.583333 0C0.704862 0 0.802083 0.034375 0.875 0.103125L0.984375 0.171875L6.67188 4.84688C6.89062 5.05313 7 5.27083 7 5.5C7 5.72917 6.89062 5.94687 6.67188 6.15312L0.984375 10.8281L0.911458 10.8969Z" fill="#8E8E8E"/>
</svg>
