<svg width="17" height="17" viewBox="0 0 17 17" fill="none" xmlns="http://www.w3.org/2000/svg">
<path d="M10.4207 10.4309C11.3197 9.53185 11.7692 8.45233 11.7692 7.19231C11.7692 5.93229 11.3214 4.85447 10.4258 3.95883C9.53014 3.0632 8.45233 2.61538 7.19231 2.61538C5.93229 2.61538 4.85447 3.0632 3.95883 3.95883C3.0632 4.85447 2.61538 5.93229 2.61538 7.19231C2.61538 8.45233 3.0632 9.53014 3.95883 10.4258C4.85447 11.3214 5.93229 11.7692 7.19231 11.7692C8.45233 11.7692 9.52844 11.3231 10.4207 10.4309ZM17 15.6923C17 16.0465 16.8706 16.353 16.6118 16.6118C16.353 16.8706 16.0465 17 15.6923 17C15.3245 17 15.018 16.8706 14.7728 16.6118L11.2686 13.1178C10.0495 13.9623 8.69071 14.3846 7.19231 14.3846C6.21835 14.3846 5.28696 14.1956 4.39814 13.8176C3.50931 13.4396 2.74309 12.9288 2.09946 12.2852C1.45583 11.6415 0.945014 10.8753 0.567007 9.98648C0.189001 9.09765 0 8.16627 0 7.19231C0 6.21835 0.189001 5.28696 0.567007 4.39814C0.945014 3.50931 1.45583 2.74309 2.09946 2.09946C2.74309 1.45583 3.50931 0.945014 4.39814 0.567007C5.28696 0.189001 6.21835 0 7.19231 0C8.16627 0 9.09765 0.189001 9.98648 0.567007C10.8753 0.945014 11.6415 1.45583 12.2852 2.09946C12.9288 2.74309 13.4396 3.50931 13.8176 4.39814C14.1956 5.28696 14.3846 6.21835 14.3846 7.19231C14.3846 8.69071 13.9623 10.0495 13.1178 11.2686L16.622 14.7728C16.874 15.0248 17 15.3313 17 15.6923Z" fill="white"/>
</svg>
