<svg width="14" height="14" viewBox="0 0 14 14" fill="none" xmlns="http://www.w3.org/2000/svg">
<path fill-rule="evenodd" clip-rule="evenodd" d="M11.9498 2.05021C10.583 0.683397 8.93306 0 7 0C5.06694 0 3.41702 0.683397 2.05021 2.05021C0.683396 3.41702 0 5.06694 0 7C0 8.93306 0.683396 10.583 2.05021 11.9498C3.41702 13.3166 5.06694 14 7 14C8.93306 14 10.583 13.3166 11.9498 11.9498C13.3166 10.583 14 8.93306 14 7C14 5.06694 13.3166 3.41702 11.9498 2.05021ZM13.0628 7C13.0628 8.67923 12.4721 10.1095 11.2908 11.2908C10.1095 12.4721 8.67923 13.0628 7 13.0628C5.32077 13.0628 3.89052 12.4721 2.7092 11.2908C1.52789 10.1095 0.937239 8.67923 0.937239 7C0.937239 5.32077 1.52789 3.89052 2.7092 2.70921C3.89052 1.52789 5.32077 0.937239 7 0.937239C8.67923 0.937239 10.1095 1.52789 11.2908 2.70921C12.4721 3.89052 13.0628 5.32077 13.0628 7ZM9.78243 6.50209H7.43933V3.22176C7.43933 3.08508 7.3954 2.9728 7.30753 2.88494C7.21966 2.79707 7.10739 2.75314 6.97071 2.75314C6.83403 2.75314 6.72176 2.79707 6.63389 2.88494C6.54602 2.9728 6.50209 3.08508 6.50209 3.22176V6.97071C6.50209 7.10739 6.54602 7.21966 6.63389 7.30753C6.72176 7.3954 6.83403 7.43933 6.97071 7.43933H9.78243C9.91911 7.43933 10.0314 7.3954 10.1192 7.30753C10.2071 7.21966 10.251 7.10739 10.251 6.97071C10.251 6.83403 10.2071 6.72176 10.1192 6.63389C10.0314 6.54602 9.91911 6.50209 9.78243 6.50209Z" fill="#767676"/>
</svg>
