<svg width="32" height="23" viewBox="0 0 32 23" fill="none" xmlns="http://www.w3.org/2000/svg">
<path fill-rule="evenodd" clip-rule="evenodd" d="M30.6592 10H1.34078C0.715081 10 0.335196 10.1471 0.201117 10.4412C0.0670384 10.7353 0 11.0882 0 11.5C0 11.9118 0.0670384 12.2647 0.201117 12.5588C0.335196 12.8529 0.715081 13 1.34078 13H30.6592C31.2849 13 31.6648 12.8529 31.7989 12.5588C31.933 12.2647 32 11.9118 32 11.5C32 11.0882 31.933 10.7353 31.7989 10.4412C31.6648 10.1471 31.2849 10 30.6592 10ZM30.6592 20H1.34078C0.715081 20 0.335196 20.1471 0.201117 20.4412C0.0670384 20.7353 0 21.0882 0 21.5C0 21.9118 0.0670384 22.2647 0.201117 22.5588C0.335196 22.8529 0.715081 23 1.34078 23H30.6592C31.2849 23 31.6648 22.8529 31.7989 22.5588C31.933 22.2647 32 21.9118 32 21.5C32 21.0882 31.933 20.7353 31.7989 20.4412C31.6648 20.1471 31.2849 20 30.6592 20ZM1.34078 3H30.6592C31.2849 3 31.6648 2.85437 31.7989 2.56311C31.933 2.27184 32 1.91262 32 1.48544C32 1.07767 31.933 0.728157 31.7989 0.436895C31.6648 0.145629 31.2849 0 30.6592 0H1.34078C0.715081 0 0.335196 0.145629 0.201117 0.436895C0.0670384 0.728157 0 1.07767 0 1.48544C0 1.91262 0.0670384 2.27184 0.201117 2.56311C0.335196 2.85437 0.715081 3 1.34078 3Z" fill="white"/>
</svg>
