<svg width="20" height="14" viewBox="0 0 20 14" fill="none" xmlns="http://www.w3.org/2000/svg">
<path d="M19.8729 6.61096C19.6942 6.36655 15.4371 0.626343 9.9999 0.626343C4.56274 0.626343 0.305391 6.36655 0.126914 6.61073C-0.0423048 6.8426 -0.0423048 7.1571 0.126914 7.38897C0.305391 7.63339 4.56274 13.3736 9.9999 13.3736C15.4371 13.3736 19.6942 7.63335 19.8729 7.38917C20.0423 7.15733 20.0423 6.8426 19.8729 6.61096ZM9.9999 12.0549C5.99486 12.0549 2.52606 8.24503 1.49922 6.99952C2.52473 5.75292 5.98626 1.94502 9.9999 1.94502C14.0048 1.94502 17.4733 5.75424 18.5006 7.00042C17.4751 8.24698 14.0135 12.0549 9.9999 12.0549Z" fill="#686868"/>
<path d="M10 3.04395C7.81867 3.04395 6.04395 4.81867 6.04395 7.00001C6.04395 9.18134 7.81867 10.9561 10 10.9561C12.1813 10.9561 13.9561 9.18134 13.9561 7.00001C13.9561 4.81867 12.1813 3.04395 10 3.04395ZM10 9.63735C8.54571 9.63735 7.36266 8.45427 7.36266 7.00001C7.36266 5.54575 8.54574 4.36266 10 4.36266C11.4543 4.36266 12.6374 5.54575 12.6374 7.00001C12.6374 8.45427 11.4543 9.63735 10 9.63735Z" fill="#686868"/>
</svg>
